<?xml version="1.0" standalone="no"?>
<!DOCTYPE svg PUBLIC "-//W3C//DTD SVG 20010904//EN"
 "http://www.w3.org/TR/2001/REC-SVG-20010904/DTD/svg10.dtd">
<svg version="1.0" xmlns="http://www.w3.org/2000/svg"
 width="192.000000pt" height="192.000000pt" viewBox="0 0 192.000000 192.000000"
 preserveAspectRatio="xMidYMid meet">
<metadata>
Created by potrace 1.16, written by Peter Selinger 2001-2019
</metadata>
<g transform="translate(0.000000,192.000000) scale(0.100000,-0.100000)"
fill="#000000" stroke="none">
<path d="M0 960 l0 -960 960 0 960 0 0 960 0 960 -960 0 -960 0 0 -960z m1057
763 c70 -49 147 -139 192 -222 29 -55 71 -194 71 -236 0 -12 28 -49 68 -90
106 -110 180 -230 232 -378 66 -188 81 -291 81 -536 0 -139 -4 -186 -13 -193
-7 -4 -74 -8 -149 -8 -103 0 -139 3 -148 14 -7 8 -11 70 -10 178 1 182 -4 226
-33 338 -42 162 -152 331 -247 380 l-36 18 -17 109 c-16 104 -53 212 -77 227
-27 17 -73 -103 -91 -237 -9 -70 -15 -85 -37 -102 -14 -11 -57 -50 -95 -87
-145 -142 -215 -385 -201 -698 5 -95 3 -118 -10 -128 -11 -9 -54 -12 -158 -10
l-144 3 -6 105 c-22 414 85 768 300 989 73 76 73 76 91 164 22 105 60 190 124
274 75 100 195 190 234 176 10 -3 45 -26 79 -50z"/>
<path d="M893 1685 c-57 -42 -163 -166 -163 -191 0 -7 34 -51 77 -99 l76 -88
34 42 c19 22 41 41 48 41 7 0 29 -19 48 -41 l34 -42 76 88 c43 48 77 92 77 97
0 42 -196 239 -237 238 -4 0 -36 -21 -70 -45z"/>
<path d="M690 1406 c-13 -36 -27 -96 -34 -147 -6 -39 -15 -53 -67 -103 -85
-82 -201 -247 -186 -263 9 -8 197 -63 216 -62 9 0 30 21 47 47 17 26 55 66 85
90 30 23 59 47 65 51 6 5 14 38 18 74 3 36 13 86 20 111 l14 47 -75 89 c-42
50 -80 90 -85 90 -5 0 -13 -11 -18 -24z"/>
<path d="M1140 1344 l-73 -87 16 -87 c9 -48 17 -98 17 -113 0 -20 14 -36 58
-71 32 -24 78 -69 101 -100 24 -31 49 -56 56 -56 15 0 205 57 212 63 12 12
-91 161 -164 237 -79 83 -82 88 -92 151 -13 76 -34 142 -47 146 -6 2 -43 -36
-84 -83z"/>
<path d="M381 840 c-16 -9 -59 -143 -81 -252 -11 -53 -20 -99 -20 -102 0 -3
51 -6 113 -6 l114 0 20 83 c12 46 33 113 47 148 14 35 22 67 18 71 -13 13
-201 65 -211 58z"/>
<path d="M1425 814 c-43 -13 -83 -28 -87 -32 -4 -4 4 -36 18 -71 14 -35 35
-102 47 -148 l20 -83 114 0 c112 0 113 0 108 22 -2 13 -9 50 -15 84 -6 33 -24
104 -40 157 -36 113 -32 112 -165 71z"/>
<path d="M276 414 c-3 -9 -6 -54 -6 -100 l0 -84 115 0 115 0 0 100 0 100 -109
0 c-90 0 -110 -3 -115 -16z"/>
<path d="M1430 330 l0 -100 115 0 115 0 0 78 c0 128 6 122 -121 122 l-109 0 0
-100z"/>
<path d="M270 145 l0 -35 115 0 115 0 0 35 0 35 -115 0 -115 0 0 -35z"/>
<path d="M1430 145 l0 -36 113 3 112 3 2 33 1 32 -114 0 -114 0 0 -35z"/>
</g>
</svg>
