<svg xmlns="http://www.w3.org/2000/svg" viewBox="0 0 150 127.63"><defs><filter id="a" width="1.218" y="-.133" x="-.109" height="1.267" color-interpolation-filters="sRGB"><feGaussianBlur stdDeviation="1.455"/></filter></defs><path style="filter:url(#a);fill:#7a7a7a" d="M381.88 200.52c-1.108 0-2 .823-2 1.844v16.812c0 1.02.892 1.844 2 1.844h1.188c-.442 1.945-1.394 3.82-2.313 5.687 2.365-1.627 4.148-3.4 5.688-5.687h23.437c1.108 0 2-.823 2-1.844v-16.812c0-1.021-.892-1.844-2-1.844h-28z" transform="translate(-1448.31 -758.14) scale(3.8479)"/><path style="stroke-linejoin:round;stroke:#000;stroke-linecap:round;stroke-width:.25988;fill:#fff" d="M380.62 198.38c-1.108 0-2 .823-2 1.844v16.812c0 1.02.892 1.844 2 1.844h1.188c-.442 1.945-1.394 3.82-2.313 5.687 2.365-1.627 4.148-3.4 5.688-5.687h23.437c1.108 0 2-.823 2-1.844v-16.812c0-1.021-.892-1.844-2-1.844h-28z" transform="translate(-1448.31 -758.14) scale(3.8479)"/></svg>